<?xml version="1.0" encoding="UTF-8"?>
<svg width="30px" height="23px" viewBox="0 0 30 23" version="1.1" xmlns="http://www.w3.org/2000/svg" xmlns:xlink="http://www.w3.org/1999/xlink">
    <title></title>
    <defs>
        <rect id="path-1" x="0" y="0" width="30" height="23"></rect>
    </defs>
    <g id="Web-RTC" stroke="none" stroke-width="1" fill-rule="evenodd">
        <g id="切图" transform="translate(-105.000000, -464.000000)">
            <g id="icon-语音模式-normal" transform="translate(105.000000, 464.000000)">
                <path d="M23.0392064,15.2527427 C21.1839312,14.0882748 20.8982035,13.9427857 20.2552026,14.0154839 C19.7442019,14.0733647 19.5039289,14.1771796 18.9616554,14.9104592 C18.6228368,15.3686894 18.3253818,15.9264746 17.7889265,16.1009503 C17.0175619,16.3519212 15.4848325,16.1421614 12.6176286,13.3605517 C10.3259527,10.924467 10.1204615,9.58691241 10.3997437,8.72899013 C10.6128258,8.07440984 11.2038721,7.65133401 11.6813637,7.16245935 C11.7686001,7.07314705 11.8488275,6.97820411 11.9193367,6.87262037 C12.2017098,6.44977606 12.2215735,5.89664914 12.0830188,5.40510734 C11.9342913,4.87746647 11.5837817,4.10605969 10.7623715,2.96238249 C9.83362477,1.58187524 9.69074275,1.50909725 9.04999642,1.50909725 C8.47845928,1.43631934 7.48050337,1.80020845 6.48032019,2.60076212 C5.48013155,3.2557684 5.19436388,4.0563193 5.05371214,5.00016439 C4.91082822,6.16460458 4.69650229,10.162849 9.62153357,15.6893951 C14.5465585,21.2159412 20.9003853,22.4532 23.1842976,20.8520797 C24.113117,20.1243566 24.8967544,18.5982498 24.9681182,17.6521543 C25.1110275,16.9243386 24.8252998,16.4148955 23.0392064,15.2527427 Z" id="路径"></path>
                <mask id="mask-2" fill="white">
                    <use xlink:href="#path-1"></use>
                </mask>
                <use id="蒙版" fill-opacity="0" fill="#D8D8D8" xlink:href="#path-1"></use>
            </g>
        </g>
    </g>
</svg>
