<?xml version="1.0" standalone="no"?>
<!DOCTYPE svg PUBLIC "-//W3C//DTD SVG 1.1//EN" "http://www.w3.org/Graphics/SVG/1.1/DTD/svg11.dtd"><svg t="1614408290640"
  class="icon" viewBox="0 0 1024 1024" version="1.1" xmlns="http://www.w3.org/2000/svg" p-id="11002"
  xmlns:xlink="http://www.w3.org/1999/xlink">
  <defs>
    <style type="text/css"></style>
  </defs>
  <path
    d="M341.333333 85.333333a42.666667 42.666667 0 0 0-42.666666 42.666667v128a42.666667 42.666667 0 0 1-42.666667 42.666667H128a42.666667 42.666667 0 1 0 0 85.333333h128a128 128 0 0 0 128-128V128a42.666667 42.666667 0 0 0-42.666667-42.666667zM298.666667 896a42.666667 42.666667 0 1 0 85.333333 0v-128a128 128 0 0 0-128-128H128a42.666667 42.666667 0 1 0 0 85.333333h128a42.666667 42.666667 0 0 1 42.666667 42.666667v128zM725.333333 896a42.666667 42.666667 0 1 1-85.333333 0v-128a128 128 0 0 1 128-128h128a42.666667 42.666667 0 1 1 0 85.333333h-128a42.666667 42.666667 0 0 0-42.666667 42.666667v128zM725.333333 128a42.666667 42.666667 0 1 0-85.333333 0v128a128 128 0 0 0 128 128h128a42.666667 42.666667 0 1 0 0-85.333333h-128a42.666667 42.666667 0 0 1-42.666667-42.666667V128z"
     p-id="11003"></path>
</svg>