<?xml version="1.0" standalone="no"?>
<!DOCTYPE svg PUBLIC "-//W3C//DTD SVG 1.1//EN" "http://www.w3.org/Graphics/SVG/1.1/DTD/svg11.dtd"><svg t="1614408146983"
  class="icon" viewBox="0 0 1024 1024" version="1.1" xmlns="http://www.w3.org/2000/svg" p-id="8425"
  xmlns:xlink="http://www.w3.org/1999/xlink">
  <defs>
    <style type="text/css"></style>
  </defs>
  <path
    d="M136.533333 170.666667a34.133333 34.133333 0 0 1 34.133334-34.133334h204.8a34.133333 34.133333 0 0 1 0 68.266667H204.8v170.666667a34.133333 34.133333 0 0 1-68.266667 0v-204.8z m477.866667 0a34.133333 34.133333 0 0 1 34.133333-34.133334h204.8a34.133333 34.133333 0 0 1 34.133334 34.133334v204.8a34.133333 34.133333 0 0 1-68.266667 0V204.8H648.533333a34.133333 34.133333 0 0 1-34.133333-34.133333zM170.666667 614.4a34.133333 34.133333 0 0 1 34.133333 34.133333V819.2h170.666667a34.133333 34.133333 0 0 1 0 68.266667h-204.8a34.133333 34.133333 0 0 1-34.133334-34.133334v-204.8a34.133333 34.133333 0 0 1 34.133334-34.133333z m682.666666 0a34.133333 34.133333 0 0 1 34.133334 34.133333v204.8a34.133333 34.133333 0 0 1-34.133334 34.133334h-204.8a34.133333 34.133333 0 0 1 0-68.266667H819.2V648.533333a34.133333 34.133333 0 0 1 34.133333-34.133333z"
     p-id="8426"></path>
</svg>