<?xml version="1.0" encoding="UTF-8"?>
<svg width="32px" height="23px" viewBox="0 0 32 23" version="1.1" xmlns="http://www.w3.org/2000/svg" xmlns:xlink="http://www.w3.org/1999/xlink">
    <title>icon-字幕- 关闭@1x</title>
    <defs>
        <rect id="path-1" x="0" y="0" width="32" height="23"></rect>
        <rect id="path-3" x="0" y="0" width="32" height="23"></rect>
    </defs>
    <g id="Web-RTC" stroke="none" stroke-width="1" fill="none" fill-rule="evenodd">
        <g id="画板" transform="translate(-112.000000, -9.000000)">
            <g id="icon-字幕--关闭" transform="translate(112.000000, 9.000000)">
                <mask id="mask-2" fill="white">
                    <use xlink:href="#path-1"></use>
                </mask>
                <g id="蒙版"></g>
                <path d="M26.8,2.5 C27.4624,2.5 28,2.948 28,3.5 L28,19.5 C28,20.052 27.4624,20.5 26.8,20.5 L5.2,20.5 C4.5376,20.5 4,20.052 4,19.5 L4,3.5 C4,2.948 4.5376,2.5 5.2,2.5 L26.8,2.5 Z" id="形状结合" fill-opacity="0.8" fill="#FFFFFF" fill-rule="nonzero" mask="url(#mask-2)"></path>
                <path d="M12.8855,7.5 C13.9905,7.5 14.9905,7.948 15.7145,8.673 L15.7145,8.673 L14.3005,10.087 C13.9335,9.72 13.4355,9.5 12.8855,9.5 C11.7805,9.5 10.8855,10.395 10.8855,11.5 C10.8855,12.605 11.7805,13.5 12.8855,13.5 C13.4385,13.5 13.9385,13.276 14.2995,12.914 L14.2995,12.914 L15.7135,14.328 C14.9855,15.05 13.9855,15.5 12.8855,15.5 C10.6775,15.5 8.8855,13.708 8.8855,11.5 C8.8855,9.292 10.6775,7.5 12.8855,7.5 Z M20.2855,7.5 C21.3905,7.5 22.3905,7.948 23.1145,8.673 L23.1145,8.673 L21.7005,10.087 C21.3385,9.724 20.8385,9.5 20.2855,9.5 C19.1805,9.5 18.2855,10.395 18.2855,11.5 C18.2855,12.605 19.1805,13.5 20.2855,13.5 C20.8375,13.5 21.3375,13.276 21.6995,12.914 L21.6995,12.914 L23.1135,14.328 C22.3895,15.052 21.3895,15.5 20.2855,15.5 C18.0775,15.5 16.2855,13.708 16.2855,11.5 C16.2855,9.292 18.0775,7.5 20.2855,7.5 Z" id="形状结合" fill="#FF5555" fill-rule="nonzero" mask="url(#mask-2)"></path>
                <mask id="mask-4" fill="white">
                    <use xlink:href="#path-3"></use>
                </mask>
                <g id="蒙版"></g>
            </g>
        </g>
    </g>
</svg>