<?xml version="1.0" encoding="UTF-8"?>
<svg width="14px" height="14px" viewBox="0 0 14 14" version="1.1" xmlns="http://www.w3.org/2000/svg" xmlns:xlink="http://www.w3.org/1999/xlink">
    <title>编组 8</title>
    <g id="设计稿-上传" stroke="none" stroke-width="1" fill-rule="evenodd">
        <g id="编组-8">
            <rect id="矩形" x="0" y="0" width="14" height="14" fill="none"></rect>
            <path d="M5.29012806,0.149540765 C5.4786173,-0.0276927342 5.7614554,-0.0473853452 5.97091106,0.0904629318 L6.04568953,0.149540765 L12.8437199,6.63944951 C12.9434602,6.73307269 13,6.86351446 13,7 C13,7.10918843 12.9638145,7.21450885 12.8982733,7.30020455 L12.8437199,7.36055049 L6.04467807,13.8504592 C5.85618882,14.0276927 5.57335072,14.0473853 5.36389506,13.9095371 L5.28911659,13.8504592 L4.15628011,12.7688078 C4.05653981,12.6751846 4,12.5447428 4,12.4082573 C4,12.2990689 4.03618548,12.1937484 4.1017267,12.1080527 L4.15628011,12.0477068 L9.444,6.999 L4.15729157,1.9522932 C4.07749933,1.87739465 4.0253554,1.77893221 4.00768952,1.67266258 L4.00101146,1.59174271 C4.00101146,1.48255428 4.03719694,1.37723386 4.10273816,1.29153816 L4.15729157,1.23119222 L5.29012806,0.149540765 Z" id="路径"></path>
        </g>
    </g>
</svg>