<?xml version="1.0" encoding="UTF-8"?>
<svg width="31px" height="23px" viewBox="0 0 31 23" version="1.1" xmlns="http://www.w3.org/2000/svg" xmlns:xlink="http://www.w3.org/1999/xlink">
    <title></title>
    <defs>
        <rect id="path-1" x="0" y="0" width="30" height="23"></rect>
    </defs>
    <g id="Web-RTC" stroke="none" stroke-width="1" fill-rule="evenodd">
        <g id="切图" transform="translate(-47.000000, -464.000000)">
            <g id="icon-打开外接屏-normal" transform="translate(47.900000, 464.000000)">
                <path d="M21.5397805,19.3997075 C22.0784197,19.3997075 22.515073,19.8363608 22.515073,20.375 C22.515073,20.9136392 22.0784197,21.3502925 21.5397805,21.3502925 L7.89324153,21.3502925 C7.35460235,21.3502925 6.91794903,20.9136392 6.91794903,20.375 C6.91794903,19.8363608 7.35460235,19.3997075 7.89324153,19.3997075 L21.5397805,19.3997075 Z M25.1802143,1.6497075 C26.2847838,1.6497075 27.1802143,2.545138 27.1802143,3.6497075 L27.1802143,15.2403818 C27.1802143,16.3449513 26.2847838,17.2403818 25.1802143,17.2403818 L4.81978572,17.2403818 C3.71521622,17.2403818 2.81978572,16.3449513 2.81978572,15.2403818 L2.81978572,3.6497075 C2.81978572,2.545138 3.71521622,1.6497075 4.81978572,1.6497075 L25.1802143,1.6497075 Z M17.0234413,6.58979448 C16.6559231,6.58979448 16.3359399,6.79383571 16.1707471,7.09464941 L16.1707471,7.09464941 L14.1939024,7.09464941 L14.056445,7.31992456 L12.9955137,9.05631935 L11.7571506,9.05631935 C11.5513801,8.52147688 11.0331333,8.14193418 10.4257819,8.14193418 C9.63834436,8.14193418 9,8.78027854 9,9.56771604 C9,10.3551535 9.63834436,10.9935113 10.4257819,10.9935113 C11.0649573,10.9935113 11.6058188,10.5730692 11.7869236,9.99356046 L11.7869236,9.99356046 L14.2371209,9.99356046 L15.1777267,11.7044719 L15.3117256,11.9478709 L16.4034621,11.9478709 L16.4034621,12.3002948 L17.9848655,12.3002948 L17.9848655,10.6471064 L16.4034755,10.6471064 L16.4034755,11.0107505 L15.8642227,11.0107505 L15.3047951,9.99356046 L18.8524395,9.99356046 L18.8524395,10.8076208 L19.9264275,10.187722 L21,9.56771604 L18.8524395,8.32791855 L18.8524395,9.05631935 L14.0908965,9.05631935 L14.7168142,8.03199777 L16.1723691,8.03199777 C16.338192,8.33118943 16.6571564,8.53382311 17.0234413,8.53382311 C17.5602275,8.53382311 17.9954556,8.09870227 17.9954556,7.5618088 C17.9954556,7.02491533 17.5602275,6.58979448 17.0234413,6.58979448 Z" id="形状结合"></path>
                <mask id="mask-2" fill="white">
                    <use xlink:href="#path-1"></use>
                </mask>
                <use id="蒙版" fill-opacity="0" fill="#D8D8D8" xlink:href="#path-1"></use>
            </g>
        </g>
    </g>
</svg>
