<?xml version="1.0" encoding="UTF-8"?>
<svg width="62px" height="42px" viewBox="0 0 62 42" version="1.1" xmlns="http://www.w3.org/2000/svg" xmlns:xlink="http://www.w3.org/1999/xlink">
    <title>-</title>
    <g id="Web-RTC" stroke="none" stroke-width="1" fill="none" fill-rule="evenodd">
        <g id="切图" transform="translate(-466.000000, -304.000000)">
            <g id="缩略视图-" transform="translate(466.000000, 304.000000)">
                <rect id="矩形备份-23" stroke="#3876FF" opacity="0" x="0.5" y="0.5" width="61" height="41" rx="2"></rect>
                <rect id="矩形备份-2" fill-opacity="0.3" fill="#FFFFFF" x="1" y="1" width="60" height="40" rx="2"></rect>
                <rect id="矩形备份-60" fill="#C6C6C9" x="4" y="3.99861189" width="17" height="10" rx="1"></rect>
                <rect id="矩形备份-63" fill="#C6C6C9" x="4" y="16" width="17" height="10" rx="1"></rect>
                <rect id="矩形备份-65" fill="#C6C6C9" x="22.5" y="16" width="17" height="10" rx="1"></rect>
                <rect id="矩形备份-67" fill="#C6C6C9" x="22.5" y="28.0013881" width="17" height="10" rx="1"></rect>
                <rect id="矩形备份-66" fill="#C6C6C9" x="41.5" y="16" width="17" height="10" rx="1"></rect>
                <rect id="矩形备份-68" fill="#C6C6C9" x="41.5" y="28.0013881" width="17" height="10" rx="1"></rect>
                <rect id="矩形备份-64" fill="#C6C6C9" x="4" y="28" width="17" height="10" rx="1"></rect>
                <rect id="矩形备份-61" fill="#C6C6C9" x="22.5" y="3.99861189" width="17" height="10" rx="1"></rect>
                <rect id="矩形备份-62" fill="#C6C6C9" x="41" y="3.99861189" width="17" height="10" rx="1"></rect>
            </g>
        </g>
    </g>
</svg>