<!-- <?xml version="1.0" encoding="UTF-8"?> -->
<svg width="14px" height="14px" viewBox="0 0 14 14" version="1.1" xmlns="http://www.w3.org/2000/svg" xmlns:xlink="http://www.w3.org/1999/xlink">
    <title>加</title>
    <g id="设计稿-上传" stroke="none" fill-rule="evenodd">
        <g id="加">
            <rect id="矩形" x="0" y="0" width="14" height="14" fill="none"></rect>
            <path d="M12.5,8 L8,8 L8,12.5 C8,12.776 7.776,13 7.5,13 L6.5,13 C6.224,13 6,12.776 6,12.5 L6,8 L1.5,8 C1.224,8 1,7.776 1,7.5 L1,6.5 C1,6.224 1.224,6 1.5,6 L6,6 L6,1.5 C6,1.224 6.224,1 6.5,1 L7.5,1 C7.776,1 8,1.224 8,1.5 L8,6 L12.5,6 C12.776,6 13,6.224 13,6.5 L13,7.5 C13,7.776 12.776,8 12.5,8 Z" id="➕"></path>
        </g>
    </g>
</svg>